<svg id="Capa_1" enable-background="new 0 0 512 512" height="512" viewBox="0 0 512 512" width="512" xmlns="http://www.w3.org/2000/svg"><g><g><path d="m30.968 424.392h450.064c17.103 0 30.968-11.824 30.968-39.968v-275.429l-512-.083v275.512c0 28.702 13.865 39.968 30.968 39.968z" fill="#c75058"/><path d="m512 108.995c0-7.985-3.022-15.264-7.985-20.756l-496.029.001c-4.945 5.473-7.963 12.72-7.984 20.672l235.605 206.375c11.676 10.217 29.11 10.217 40.786 0l235.607-206.155z" fill="#b74a56"/><path d="m276.393 287.416c-11.676 10.217-29.11 10.217-40.786 0l-227.621-199.175c5.667-6.271 13.863-10.213 22.981-10.213h450.065c9.118 0 17.314 3.942 22.981 10.213z" fill="#f3746b"/><path d="m147.35 214.511c0 73.406 91.098 118.487 106.285 126.372 1.485.771 3.244.771 4.729 0 15.187-7.885 106.286-58.097 106.286-126.372.001.001.002.002.003.004-.047-.389-.08-.776-.133-1.166-9.648-70.528-95.057-63.56-108.52-20.599-13.463-42.961-98.872-49.929-108.52 20.599-.053.39-.086.776-.133 1.165.001-.001.002-.002.003-.003z" fill="#ffb8c7"/><path d="m481.032 415.392h-450.064c-17.103 0-30.968-13.865-30.968-30.968v18.581c0 17.103 13.865 30.968 30.968 30.968h450.065c17.103 0 30.968-13.865 30.968-30.968v-18.581c-.001 17.103-13.866 30.968-30.969 30.968z" fill="#b74a56"/><path d="m253.635 331.883c-15.187-7.885-98.628-53.922-106.285-117.372-8.867 73.023 89.935 127.473 106.356 135.989 1.439.746 3.149.746 4.587 0 16.422-8.516 115.223-62.966 106.357-135.989-7.658 63.45-91.099 109.487-106.286 117.372-1.485.771-3.243.771-4.729 0z" fill="#ffacca"/></g><g><path d="m209.556 237.372v12.769c0 4.284 3.473 7.757 7.757 7.757s7.757-3.473 7.757-7.757v-12.769c0-4.284-3.473-7.757-7.757-7.757s-7.757 3.473-7.757 7.757z" fill="#5f707b"/><path d="m286.93 237.372v12.769c0 4.284 3.473 7.757 7.757 7.757s7.757-3.473 7.757-7.757v-12.769c0-4.284-3.473-7.757-7.757-7.757s-7.757 3.473-7.757 7.757z" fill="#5f707b"/><path d="m263.433 263.194c-.963 3.282-4.019 5.574-7.433 5.574s-6.47-2.292-7.433-5.574c-1.205-4.11-5.513-6.464-9.627-5.26-4.111 1.206-6.466 5.516-5.26 9.627 2.888 9.845 12.066 16.722 22.32 16.722s19.432-6.876 22.32-16.722c1.206-4.111-1.149-8.421-5.26-9.627-4.108-1.203-8.421 1.149-9.627 5.26z" fill="#c75058"/></g></g></svg>